<svg width="244" height="98" xmlns="http://www.w3.org/2000/svg"><g fill="none"><circle fill="#00AFAA" cx="200" cy="29.1" r="6.3"/><path d="M141.1 40.2c-10.9 0-19.8 8.9-19.8 19.8s8.9 19.8 19.8 19.8 19.8-8.9 19.8-19.8c0-11-8.8-19.8-19.8-19.8zm0 31c-6.2 0-11.2-5-11.2-11.2 0-6.2 5-11.2 11.2-11.2 6.2 0 11.2 5 11.2 11.2.1 6.2-5 11.2-11.2 11.2zm48.5-30.8c-.7-1.8-3.9-1.2-3.9-1.2-.7.1-1.3.2-2 .4-1.2.4-2.4 1-3.5 1.7s-2.1 1.6-2.9 2.6c-.1.1-.2.2-.2.3 0 0-.1.2-.3.4-.3.3-.3.4-.3.4-.2.3-.5.7-.7 1.1V40h-8.1c-1.3 0-2.4 1.1-2.4 2.4v33.7c0 1.3 1.1 2.4 2.4 2.4h8.1V63.6c0-1.3.1-3.5.1-4.9 0 0 0-.9.4-2.4.3-1.5.9-2.8 1.8-3.9.8-1.1 1.9-2 3.2-2.6 1.3-.6 3-1 4.9-1 .6 0 1.3 0 2 .1l.7.1c.6.1 1.1-.9 1.1-2.2v-5c-.1-.4-.2-.9-.4-1.4zm13.3-1.3h-5.7c-1.4 0-2.5 1.1-2.5 2.5v37.2h8.2c1.4 0 2.5-1.1 2.5-2.5V39.1h-2.5zm-80.7 1.1h-8.4c-1.4 0-2.8 1.1-3.2 2.3l-6.9 21.6c-.4 1.3-.8 2.3-.8 2.3s-.4-1.1-.8-2.3l-5.4-17-.6-1.9-.8-2.7v-.1l-.7-2.3h-9c-1.4 0-2.1 1-1.6 2.3l12 33.9c.5 1.3 1.9 2.3 3.3 2.3h9.8l2.2-6.4 9.2-26.2 1.7-5.8zm121.3 23.3c-.2-.4-.3-.8-.6-1.2-.1-.2-.2-.4-.4-.6-.2-.3-.5-.7-.8-1-.5-.6-1.1-1.2-1.7-1.7-.3-.2-.6-.5-1-.7-1.3-.8-2.7-1.5-4-1.8-1.3-.4-2.4-.6-3.1-.8-2.5-.6-4.5-1.1-6-1.5-1.5-.4-2.7-.8-3.6-1.2-.8-.4-1.3-.7-1.6-1.1-.1-.1-.1-.2-.2-.3-.1-.4-.2-.8-.2-1.3 0-.7.2-1.4.5-1.8.2-.2.4-.5.6-.7.2-.2.5-.4.7-.6.5-.3 1.1-.6 1.8-.7 1.7-.3 3.5-.2 4.9.1.9.2 1.6.5 2.3.9.2.1.3.2.5.3.3.2.6.5.8.8.1.2.2.3.3.5.2.3.4.7.5 1.2.1.4.2 1 .2 1.5v.3h6.4c.8 0 1.5-.3 2-.9.5-.6.7-1.3.6-2-.2-1.2-.6-2.3-1.1-3.3-.9-1.5-2-2.8-3.5-3.8l-.2-.1c-1.5-1-3.3-1.8-5.2-2.2-3.6-.8-7.6-1-11.5 0-1.8.5-3.5 1.2-4.9 2.2-1.5 1-2.6 2.2-3.5 3.7-.7 1.1-1.1 2.4-1.3 3.8-.1.5-.1 1-.1 1.5 0 .4 0 .9.1 1.3.1 1.3.5 2.4 1 3.3.7 1.3 1.7 2.3 2.8 3.2.9.6 1.8 1.2 2.8 1.6.3.2.7.3 1.1.4 1.4.5 2.9 1 4.4 1.3.7.2 1.4.4 2.2.6.7.2 1.4.3 2.1.5.3.1.7.2 1 .2 1 .3 1.9.5 2.7.9 1.1.4 1.9.9 2.6 1.5.6.6.9 1.3.9 2.3 0 .9-.2 1.6-.7 2.2-.5.6-1.1 1-1.8 1.4-.7.3-1.5.6-2.4.7-2.1.3-4 .2-5.7-.2-1-.3-1.9-.6-2.7-1.2-.7-.5-1.4-1.2-1.8-2-.1-.2-.2-.4-.3-.7v-.1l-.1-.2c0-.1-.1-.3-.1-.4-.1-.5-.2-1-.2-1.6v-.5h-6.6c-.7 0-1.5.3-2 .9-.5.5-.7 1.3-.6 2 .2 1.4.6 2.7 1.2 3.8 1 1.8 2.3 3.2 3.9 4.4.4.3.9.6 1.5.9l.2.1c.2.1.5.3.8.4.1.1.3.1.4.2.3.1.7.3 1 .4.1 0 .3.1.4.1.5.2.9.3 1.3.4 1.6.4 3.2.6 4.8.7h1.7c.7 0 1.4 0 2-.1 1.9-.1 3.7-.4 5.3-.9 2.1-.6 3.9-1.5 5.3-2.6.7-.6 1.4-1.2 1.9-1.8.3-.3.5-.7.7-1 .2-.4.4-.7.6-1.1.2-.4.3-.8.5-1.2.4-1.2.6-2.5.6-3.8.2-1.5 0-2.7-.4-3.8zM67.9 59.1c1.4 0 2.2-1.1 1.7-2.4L64.2 41c-.5-1.3-.9-2.4-.9-2.4s-.5 1.1-.9 2.4l-5.6 15.8c-.5 1.3.3 2.4 1.7 2.4h9.4v-.1zm7.3 14l-.8-2.4c-.4-1.3-2-2.4-3.3-2.4H55.4c-1.4 0-2.8 1-3.3 2.3 0 0 0 .1-.1.1l-1.3 3.6-1.5 4.2-.2.4h28.1L75.4 74l-.2-.9z" fill="#007078"/><path d="M73.6.1H.1v73.5c0 2.9 2.4 5.3 5.3 5.3h31.5l2.1-5.8 17.3-46c.5-1.3 2-2.4 3.4-2.4h7.5c1.4 0 2.9 1.1 3.4 2.4l8.3 22.3v-44c0-2.9-2.4-5.3-5.3-5.3zm-5.9 20.1h-7.5l1.4-3.7c.3-.8 1-1.3 1.9-1.3h6.2l-2 5zM1.3 88.1h2.1c1 0 1.9.3 2.5.8.6.5 1 1.2 1 2 0 .6-.2 1.2-.6 1.7-.4.5-1.1.8-1.9 1l2.8 4.1H5.7l-2.6-3.9h-.3v3.9H1.5v-9.6h-.2zm1.3 1.1v3.3c1.9 0 2.9-.5 2.9-1.7 0-.4-.1-.7-.3-1-.2-.3-.5-.4-.9-.5-.4 0-1-.1-1.7-.1zm6.5-1.1h5.3v1.3h-4v2.4h4v1.3h-4v3.3h4v1.3H9.1zm7.3 0h1.3v9.5h-1.3zm3.9-.4l7 7.2v-6.8h1.3V98l-7-7.2v6.8h-1.3zm10 .4h1.4l3 6.7 3-6.7H39l-4.4 9.8zm10.4 0H46v1.3h-4v2.4h4v1.3h-4v3.3h4v1.3h-5.3zm7.2-.4l7 7.2v-6.8h1.3V98l-7-7.2v6.8h-1.3zm10.2.4h5.8v1.3h-2.3v8.2h-1.3v-8.2H58v-1.3zm7.8 0h1.3v9.5h-1.3zm3.8-.4l7 7.2v-6.8H78V98l-7-7.2v6.8h-1.3zm20 1.9l-1 .9c-1-1-2.1-1.4-3.4-1.4-1.1 0-2 .4-2.8 1.1-.7.7-1.1 1.6-1.1 2.7 0 .9.4 1.8 1.1 2.5.7.8 1.7 1.1 3 1.1 1.9 0 3.1-.8 3.6-2.5h-2.6v-1.3h4.1c0 .7 0 1.2-.1 1.6-.1.4-.3.8-.5 1.3-.3.5-.6.9-1.1 1.3-.5.4-.9.6-1.5.8-.5.2-1.1.2-1.9.2-1.6 0-3-.5-3.9-1.5-1-1-1.5-2.2-1.5-3.5 0-1.4.5-2.6 1.5-3.6s2.2-1.5 3.6-1.5c.8 0 1.6.1 2.3.4.8.2 1.5.7 2.2 1.4zm7.2-1.8h6.6v2.1h-2.2v7.7h-2.1v-7.7H97v-2.1zm8.5 0h3.2c1 0 1.8.3 2.3.8.6.5.9 1.2.9 2.1 0 .5-.1 1-.4 1.6-.3.5-.7 1-1.4 1.3l2.7 4.1h-2.4l-2.5-3.8h-.2v3.8h-2.1v-9.9h-.1zm2.1 1.7v2.6h.5c1.1 0 1.7-.5 1.7-1.4 0-.4-.1-.7-.4-.9-.3-.2-.7-.3-1.2-.3h-.6zm10.7-1.7h1.6l4 9.8h-2.1l-.8-1.9h-3.8l-.8 1.9h-2.1l4-9.8zm.9 3.2l-1.2 2.9h2.3l-1.1-2.9zm4.6-3.2h2.1l2.5 6.5 2.5-6.5h2.1l-3.7 9.8h-1.8zm11 0h5.5v1.9h-3.4v2h3.4v1.9h-3.4v2h3.4v1.9h-5.5zm7.9 0h2.1v7.7h2.9v2.1h-5z" fill="#007078"/></g></svg>