<?xml version="1.0" encoding="UTF-8"?>
<svg width="244px" height="98px" viewBox="0 0 244 98" version="1.1" xmlns="http://www.w3.org/2000/svg" xmlns:xlink="http://www.w3.org/1999/xlink">
    <!-- Generator: Sketch 53.2 (72643) - https://sketchapp.com -->
    <title>avoris</title>
    <desc>Created with Sketch.</desc>
    <g id="Page-1" stroke="none" stroke-width="1" fill="none" fill-rule="evenodd">
        <g id="avoris" fill-rule="nonzero">
            <circle id="Oval" fill="#00AFAA" cx="200" cy="29.1" r="6.3"></circle>
            <path d="M141.1,40.2 C130.2,40.2 121.3,49.1 121.3,60 C121.3,70.9 130.2,79.8 141.1,79.8 C152,79.8 160.9,70.9 160.9,60 C160.9,49 152.1,40.2 141.1,40.2 Z M141.1,71.2 C134.9,71.2 129.9,66.2 129.9,60 C129.9,53.8 134.9,48.8 141.1,48.8 C147.3,48.8 152.3,53.8 152.3,60 C152.4,66.2 147.3,71.2 141.1,71.2 Z" id="Shape" fill="#007078"></path>
            <path d="M189.6,40.4 L189.6,40.4 C189.6,40.4 189.6,40.4 189.6,40.4 C189.6,40.4 189.6,40.4 189.6,40.4 L189.6,40.4 C188.9,38.6 185.7,39.2 185.7,39.2 L185.7,39.2 C185,39.3 184.4,39.4 183.7,39.6 C182.5,40 181.3,40.6 180.2,41.3 C179.1,42 178.1,42.9 177.3,43.9 C177.2,44 177.1,44.1 177.1,44.2 L177.1,44.2 C177.1,44.2 177,44.4 176.8,44.6 C176.5,44.9 176.5,45 176.5,45 C176.3,45.3 176,45.7 175.8,46.1 L175.8,40 L170.7,40 L170.7,40 L167.7,40 C166.4,40 165.3,41.1 165.3,42.4 L165.3,76.1 C165.3,77.4 166.4,78.5 167.7,78.5 L170.7,78.5 L173.4,78.5 L175.8,78.5 L175.8,76.1 L175.8,72.4 L175.8,63.6 C175.8,62.3 175.9,60.1 175.9,58.7 C175.9,58.7 175.9,57.8 176.3,56.3 C176.6,54.8 177.2,53.5 178.1,52.4 C178.9,51.3 180,50.4 181.3,49.8 C182.6,49.2 184.3,48.8 186.2,48.8 C186.8,48.8 187.5,48.8 188.2,48.9 C188.9,49 188.9,49 188.9,49 C189.5,49.1 190,48.1 190,46.8 L190,41.8 C189.9,41.4 189.8,40.9 189.6,40.4 Z" id="Path" fill="#007078"></path>
            <path d="M202.9,39.1 L201.4,39.1 L197.2,39.1 C195.8,39.1 194.7,40.2 194.7,41.6 L194.7,73.5 L194.7,76.3 L194.7,78.8 L197.2,78.8 L198.7,78.8 L202.9,78.8 C204.3,78.8 205.4,77.7 205.4,76.3 L205.4,44.5 L205.4,41.6 L205.4,39.1 L202.9,39.1 Z" id="Path" fill="#007078"></path>
            <path d="M122.2,40.2 L119.7,40.2 L118.1,40.2 L113.8,40.2 C112.4,40.2 111,41.3 110.6,42.5 L103.7,64.1 C103.3,65.4 102.9,66.4 102.9,66.4 C102.9,66.4 102.5,65.3 102.1,64.1 L96.7,47.1 L96.1,45.2 L96.1,45.2 L95.3,42.5 C95.3,42.5 95.3,42.5 95.3,42.4 L94.6,40.1 L92.1,40.1 L91.1,40.1 L85.6,40.1 C84.2,40.1 83.5,41.1 84,42.4 L96,76.3 C96.5,77.6 97.9,78.6 99.3,78.6 L102.6,78.6 L106.6,78.6 L109.1,78.6 L111.3,72.2 L120.5,46 L122.2,40.2 Z" id="Path" fill="#007078"></path>
            <path d="M243.5,63.5 C243.3,63.1 243.2,62.7 242.9,62.3 C242.8,62.1 242.7,61.9 242.5,61.7 C242.3,61.4 242,61 241.7,60.7 C241.2,60.1 240.6,59.5 240,59 C239.7,58.8 239.4,58.5 239,58.3 C237.7,57.5 236.3,56.8 235,56.5 C233.7,56.1 232.6,55.9 231.9,55.7 C229.4,55.1 227.4,54.6 225.9,54.2 C224.4,53.8 223.2,53.4 222.3,53 C221.5,52.6 221,52.3 220.7,51.9 C220.6,51.8 220.6,51.7 220.5,51.6 C220.4,51.2 220.3,50.8 220.3,50.3 C220.3,49.6 220.5,48.9 220.8,48.5 C221,48.3 221.2,48 221.4,47.8 C221.6,47.6 221.9,47.4 222.1,47.2 C222.6,46.9 223.2,46.6 223.9,46.5 C225.6,46.2 227.4,46.3 228.8,46.6 C229.7,46.8 230.4,47.1 231.1,47.5 C231.3,47.6 231.4,47.7 231.6,47.8 C231.9,48 232.2,48.3 232.4,48.6 C232.5,48.8 232.6,48.9 232.7,49.1 C232.9,49.4 233.1,49.8 233.2,50.3 C233.3,50.7 233.4,51.3 233.4,51.8 L233.4,52.1 L239.8,52.1 C240.6,52.1 241.3,51.8 241.8,51.2 C242.3,50.6 242.5,49.9 242.4,49.2 C242.2,48 241.8,46.9 241.3,45.9 C240.4,44.4 239.3,43.1 237.8,42.1 L237.6,42 C236.1,41 234.3,40.2 232.4,39.8 C228.8,39 224.8,38.8 220.9,39.8 C219.1,40.3 217.4,41 216,42 C214.5,43 213.4,44.2 212.5,45.7 C211.8,46.8 211.4,48.1 211.2,49.5 C211.1,50 211.1,50.5 211.1,51 C211.1,51.4 211.1,51.9 211.2,52.3 C211.3,53.6 211.7,54.7 212.2,55.6 C212.9,56.9 213.9,57.9 215,58.8 C215.9,59.4 216.8,60 217.8,60.4 C218.1,60.6 218.5,60.7 218.9,60.8 C220.3,61.3 221.8,61.8 223.3,62.1 C224,62.3 224.7,62.5 225.5,62.7 C226.2,62.9 226.9,63 227.6,63.2 C227.9,63.3 228.3,63.4 228.6,63.4 C229.6,63.7 230.5,63.9 231.3,64.3 C232.4,64.7 233.2,65.2 233.9,65.8 C234.5,66.4 234.8,67.1 234.8,68.1 C234.8,69 234.6,69.7 234.1,70.3 C233.6,70.9 233,71.3 232.3,71.7 C231.6,72 230.8,72.3 229.9,72.4 C227.8,72.7 225.9,72.6 224.2,72.2 C223.2,71.9 222.3,71.6 221.5,71 C220.8,70.5 220.1,69.8 219.7,69 C219.6,68.8 219.5,68.6 219.4,68.3 C219.4,68.3 219.4,68.2 219.4,68.2 L219.3,68 C219.3,67.9 219.2,67.7 219.2,67.6 C219.1,67.1 219,66.6 219,66 L219,65.5 L218.5,65.5 L218.1,65.5 L212.4,65.5 C211.7,65.5 210.9,65.8 210.4,66.4 C209.9,66.9 209.7,67.7 209.8,68.4 C210,69.8 210.4,71.1 211,72.2 C212,74 213.3,75.4 214.9,76.6 C215.3,76.9 215.8,77.2 216.4,77.5 L216.6,77.6 C216.8,77.7 217.1,77.9 217.4,78 C217.5,78.1 217.7,78.1 217.8,78.2 C218.1,78.3 218.5,78.5 218.8,78.6 C218.9,78.6 219.1,78.7 219.2,78.7 C219.7,78.9 220.1,79 220.5,79.1 C222.1,79.5 223.7,79.7 225.3,79.8 C225.8,79.8 226.4,79.8 227,79.8 C227.7,79.8 228.4,79.8 229,79.7 C230.9,79.6 232.7,79.3 234.3,78.8 C236.4,78.2 238.2,77.3 239.6,76.2 C240.3,75.6 241,75 241.5,74.4 C241.8,74.1 242,73.7 242.2,73.4 C242.4,73 242.6,72.7 242.8,72.3 C243,71.9 243.1,71.5 243.3,71.1 C243.7,69.9 243.9,68.6 243.9,67.3 C244.1,65.8 243.9,64.6 243.5,63.5 Z" id="Path" fill="#007078"></path>
            <path d="M67.9,59.1 C69.3,59.1 70.1,58 69.6,56.7 L64.2,41 C63.7,39.7 63.3,38.6 63.3,38.6 C63.3,38.6 62.8,39.7 62.4,41 L56.8,56.8 C56.3,58.1 57.1,59.2 58.5,59.2 L67.9,59.2 L67.9,59.1 Z" id="Path" fill="#007078"></path>
            <path d="M75.2,73.1 L75.2,73.1 L74.4,70.7 C74,69.4 72.4,68.3 71.1,68.3 L55.4,68.3 C54,68.3 52.6,69.3 52.1,70.6 C52.1,70.6 52.1,70.7 52,70.7 L50.7,74.3 L49.2,78.5 L49,78.9 L73.5,78.9 C73.5,78.9 73.5,78.9 73.5,78.9 L77.1,78.9 L75.4,74 L75.2,73.1 Z" id="Path" fill="#007078"></path>
            <path d="M73.6,0.1 L25.8,0.1 L5.4,0.1 L0.1,0.1 L0.1,5.4 L0.1,25.8 L0.1,73.6 C0.1,76.5 2.5,78.9 5.4,78.9 L34.6,78.9 L36.9,78.9 L39,73.1 L56.3,27.1 C56.8,25.8 58.3,24.7 59.7,24.7 L67.2,24.7 C68.6,24.7 70.1,25.8 70.6,27.1 L78.9,49.4 L78.9,5.4 C78.9,2.5 76.5,0.1 73.6,0.1 Z M67.7,20.2 L60.2,20.2 L61.6,16.5 C61.9,15.7 62.6,15.2 63.5,15.2 L64.1,15.2 L69.7,15.2 L67.7,20.2 Z" id="Shape" fill="#007078"></path>
            <path d="M1.3,88.1 L3.4,88.1 C4.4,88.1 5.3,88.4 5.9,88.9 C6.5,89.4 6.9,90.1 6.9,90.9 C6.9,91.5 6.7,92.1 6.3,92.6 C5.9,93.1 5.2,93.4 4.4,93.6 L7.2,97.7 L5.7,97.7 L3.1,93.8 L2.8,93.8 L2.8,97.7 L1.5,97.7 L1.5,88.1 L1.3,88.1 Z M2.6,89.2 L2.6,92.5 C4.5,92.5 5.5,92 5.5,90.8 C5.5,90.4 5.4,90.1 5.2,89.8 C5,89.5 4.7,89.4 4.3,89.3 C3.9,89.3 3.3,89.2 2.6,89.2 Z" id="Shape" fill="#007078"></path>
            <polygon id="Path" fill="#007078" points="9.1 88.1 14.4 88.1 14.4 89.4 10.4 89.4 10.4 91.8 14.4 91.8 14.4 93.1 10.4 93.1 10.4 96.4 14.4 96.4 14.4 97.7 9.1 97.7"></polygon>
            <polygon id="Path" fill="#007078" points="16.4 88.1 17.7 88.1 17.7 97.6 16.4 97.6"></polygon>
            <polygon id="Path" fill="#007078" points="20.3 87.7 27.3 94.9 27.3 88.1 28.6 88.1 28.6 98 21.6 90.8 21.6 97.6 20.3 97.6"></polygon>
            <polygon id="Path" fill="#007078" points="30.3 88.1 31.7 88.1 34.7 94.8 37.7 88.1 39 88.1 34.6 97.9"></polygon>
            <polygon id="Path" fill="#007078" points="40.7 88.1 46 88.1 46 89.4 42 89.4 42 91.8 46 91.8 46 93.1 42 93.1 42 96.4 46 96.4 46 97.7 40.7 97.7"></polygon>
            <polygon id="Path" fill="#007078" points="47.9 87.7 54.9 94.9 54.9 88.1 56.2 88.1 56.2 98 49.2 90.8 49.2 97.6 47.9 97.6"></polygon>
            <polygon id="Path" fill="#007078" points="58.1 88.1 63.9 88.1 63.9 89.4 61.6 89.4 61.6 97.6 60.3 97.6 60.3 89.4 58 89.4 58 88.1"></polygon>
            <polygon id="Path" fill="#007078" points="65.9 88.1 67.2 88.1 67.2 97.6 65.9 97.6"></polygon>
            <polygon id="Path" fill="#007078" points="69.7 87.7 76.7 94.9 76.7 88.1 78 88.1 78 98 71 90.8 71 97.6 69.7 97.6"></polygon>
            <path d="M89.7,89.6 L88.7,90.5 C87.7,89.5 86.6,89.1 85.3,89.1 C84.2,89.1 83.3,89.5 82.5,90.2 C81.8,90.9 81.4,91.8 81.4,92.9 C81.4,93.8 81.8,94.7 82.5,95.4 C83.2,96.2 84.2,96.5 85.5,96.5 C87.4,96.5 88.6,95.7 89.1,94 L86.5,94 L86.5,92.7 L90.6,92.7 C90.6,93.4 90.6,93.9 90.5,94.3 C90.4,94.7 90.2,95.1 90,95.6 C89.7,96.1 89.4,96.5 88.9,96.9 C88.4,97.3 88,97.5 87.4,97.7 C86.9,97.9 86.3,97.9 85.5,97.9 C83.9,97.9 82.5,97.4 81.6,96.4 C80.6,95.4 80.1,94.2 80.1,92.9 C80.1,91.5 80.6,90.3 81.6,89.3 C82.6,88.3 83.8,87.8 85.2,87.8 C86,87.8 86.8,87.9 87.5,88.2 C88.3,88.4 89,88.9 89.7,89.6 Z" id="Path" fill="#007078"></path>
            <polygon id="Path" fill="#007078" points="96.9 87.8 103.5 87.8 103.5 89.9 101.3 89.9 101.3 97.6 99.2 97.6 99.2 89.9 97 89.9 97 87.8"></polygon>
            <path d="M105.4,87.8 L108.6,87.8 C109.6,87.8 110.4,88.1 110.9,88.6 C111.5,89.1 111.8,89.8 111.8,90.7 C111.8,91.2 111.7,91.7 111.4,92.3 C111.1,92.8 110.7,93.3 110,93.6 L112.7,97.7 L110.3,97.7 L107.8,93.9 L107.6,93.9 L107.6,97.7 L105.5,97.7 L105.5,87.8 L105.4,87.8 Z M107.5,89.5 L107.5,92.1 L108,92.1 C109.1,92.1 109.7,91.6 109.7,90.7 C109.7,90.3 109.6,90 109.3,89.8 C109,89.6 108.6,89.5 108.1,89.5 L107.5,89.5 L107.5,89.5 Z" id="Shape" fill="#007078"></path>
            <path d="M118.2,87.8 L119.8,87.8 L123.8,97.6 L121.7,97.6 L120.9,95.7 L117.1,95.7 L116.3,97.6 L114.2,97.6 L118.2,87.8 Z M119.1,91 L117.9,93.9 L120.2,93.9 L119.1,91 Z" id="Shape" fill="#007078"></path>
            <polygon id="Path" fill="#007078" points="123.7 87.8 125.8 87.8 128.3 94.3 130.8 87.8 132.9 87.8 129.2 97.6 127.4 97.6"></polygon>
            <polygon id="Path" fill="#007078" points="134.7 87.8 140.2 87.8 140.2 89.7 136.8 89.7 136.8 91.7 140.2 91.7 140.2 93.6 136.8 93.6 136.8 95.6 140.2 95.6 140.2 97.5 134.7 97.5"></polygon>
            <polygon id="Path" fill="#007078" points="142.6 87.8 144.7 87.8 144.7 95.5 147.6 95.5 147.6 97.6 142.6 97.6"></polygon>
        </g>
    </g>
</svg>